# xmcd
#
# Track frame offsets: 
#        150
#        12869
#        24010
#        36580
#        53758
#        67276
#        83033
#        96982
#        116403
#        136492
#        156154
#        172281
#        179372
#        193617
#        208494
#        224898
#        238554
#        250445
#        261712
#        278291
#        295246
#        311058
#        314583
#        331419
#        344254
#
# Disc length: 4724 seconds
#
# Revision: 0
# Processed by: cddbd v1.5.2PL0 Copyright (c) Steve Scherf et al.
# Submitted via: ExactAudioCopy v0.99pb3
#
DISCID=91127219
DTITLE=Mic Jordan and EnsiteNonStop - Outside In
DYEAR=2006
DGENRE=Hip-Hop
TTITLE0=Cell
TTITLE1=Skillets
TTITLE2=Neighborhood (ft. Neighborhood Greenhouse)
TTITLE3=Back2Basics
TTITLE4=Meltdown
TTITLE5=Popeye (ft. Lavon Oshun and Young K-Yel)
TTITLE6=Nickel Slick
TTITLE7=Still Doin' Dumb S#!t
TTITLE8=Stay Driven
TTITLE9=Styles and Statements (ft. Poor and NON)
TTITLE10=Olorupo
TTITLE11=Unfriendly Reminder
TTITLE12=Nautical
TTITLE13=Moneyfucked (ft. DJ Carl Larado)
TTITLE14=Schemes'n'scams (ft. Lavon Oshun)
TTITLE15=Eschatological
TTITLE16=Discovered Lately
TTITLE17=The Story (ft. Peabody Greene)
TTITLE18=Don't Love You
TTITLE19=Liquid Life
TTITLE20=Retroperspective
TTITLE21=[untitled]
TTITLE22=[untitled]
TTITLE23=[untitled]
TTITLE24=[untitled]
EXTD=
EXTT0=
EXTT1=
EXTT2=
EXTT3=
EXTT4=
EXTT5=
EXTT6=
EXTT7=
EXTT8=
EXTT9=
EXTT10=
EXTT11=
EXTT12=
EXTT13=
EXTT14=
EXTT15=
EXTT16=
EXTT17=
EXTT18=
EXTT19=
EXTT20=
EXTT21=
EXTT22=
EXTT23=
EXTT24=
PLAYORDER=
